<?xml version="1.0" encoding="utf-8"?>
<!-- Generator: Adobe Illustrator 28.0.0, SVG Export Plug-In . SVG Version: 6.00 Build 0)  -->
<svg version="1.1" id="Layer_1" xmlns="http://www.w3.org/2000/svg" xmlns:xlink="http://www.w3.org/1999/xlink" x="0px" y="0px"
	 viewBox="0 0 212.41 106.59" style="enable-background:new 0 0 212.41 106.59;" xml:space="preserve">
<path d="M174.01,90.34c-2.77,4.31-4.68,9.68-8.47,12.71c-9.78,7.82-23.38,1.93-25.32-10.48c-0.42-2.71-1.35-3.68-4.07-3.67
	c-23.82,0.07-47.65-0.01-71.47,0.17c-1.36,0.01-3.82,1.83-3.87,2.89c-0.35,7.99-8.75,14.95-16.9,14.51
	c-8.5-0.46-14.34-6.32-15.6-15.91c-0.04-0.31-0.24-0.61-0.68-1.68c-5.44,0-11.21-0.03-16.98,0.01c-4.44,0.03-7.72-1.91-9.71-5.81
	c-2-3.91-0.76-7.38,2.81-9.82c1.24-0.85,2.79-2.69,2.66-3.9C4.71,53.95,8.8,39.44,12.85,24.88c1.43-5.13,2.46-10.36,3.68-15.55
	C18.51,0.93,28.11-2.68,35.26,2.2c0.9,0.61,2.59,0.96,3.48,0.53c6.29-3.1,20.45-3.11,26.78,0.07c0.75,0.38,2.11,0.45,2.75,0.02
	c7.17-4.87,15.15-1.08,22.65-2.24c3.35,4.51,6.62,0.4,10.02,0.1c5.95-0.52,11.98-0.22,17.98-0.09c1.19,0.03,2.32,1.05,3.54,1.26
	c1.51,0.27,3.42,0.77,4.57,0.12c3.69-2.09,21.09-2.01,24.82,0.36c0.85,0.54,2.28,0.94,3.11,0.6c11.69-4.78,18.12-2.5,24.65,8.18
	c6.25,10.22,12.93,20.17,19.5,30.18c0.77,1.18,1.94,2.43,3.2,2.89c5.05,1.84,6.89,5.28,6.21,10.49c-0.52,3.96-0.77,7.96-1,11.95
	c-0.19,3.39-0.6,6.38,3.19,9.01c3.9,2.71,0.57,8.96-4.55,11.05c-8.55,3.49-17.33,1.76-26.01,2.22c-2.45,0.13-4.9,0.02-7.36,0.02
	C173.2,89.39,173.61,89.87,174.01,90.34z M112.29,41.88c0-0.01,0-0.02,0-0.03c7.65,0,15.31-0.04,22.96,0.01
	c3.93,0.03,5.86-1.79,5.83-5.74c-0.03-4.66,0-9.32,0-13.98c0-3.56-1.52-5.65-5.36-5.65c-15.64,0.03-31.28,0.02-46.93,0.02
	c-3.8,0-5.34,2-5.27,5.66c0.08,4.49,0.16,8.99-0.02,13.48c-0.19,4.56,1.98,6.3,6.31,6.24C97.31,41.81,104.8,41.88,112.29,41.88z
	 M59.41,41.85c0,0.01,0,0.03,0,0.04c4.99,0,9.98,0.04,14.96-0.01c3.81-0.04,5.82-1.84,5.73-5.86c-0.11-4.65-0.04-9.31-0.02-13.97
	c0.02-3.67-1.75-5.55-5.46-5.55c-10.14,0.01-20.28,0.03-30.43-0.01c-3.78-0.01-5.46,1.92-5.47,5.53C38.7,26.69,38.74,31.34,38.7,36
	c-0.03,3.89,1.8,5.87,5.74,5.86C49.43,41.84,54.42,41.85,59.41,41.85z M157.84,16.51c-2.66,0-5.32,0.08-7.98-0.02
	c-3.93-0.15-5.91,1.61-5.9,5.58c0.02,4.82,0.02,9.64,0,14.46c-0.01,3.49,1.73,5.24,5.17,5.28c3.32,0.04,6.65-0.02,9.97,0.02
	c12.69,0.17,12.11,0.37,12.06-11.81C171.12,15.39,172.35,16.46,157.84,16.51z M182.97,41.83c0-0.03,0-0.05,0-0.08
	c2.15,0,4.47,0.49,6.39-0.18c1.19-0.41,2.83-3.22,2.45-3.87c-3.85-6.54-7.98-12.93-12.3-19.17c-0.72-1.04-2.9-1.72-4.2-1.48
	c-0.81,0.15-1.69,2.35-1.73,3.66c-0.19,5.46-0.07,10.93-0.07,16.39c0,3.33,1.77,4.79,4.99,4.74
	C179.99,41.81,181.48,41.83,182.97,41.83z M53.25,90.79c0.03-4.41-4.12-8.44-8.66-8.42c-4.69,0.03-8.57,3.96-8.46,8.56
	c0.12,4.42,3.88,8.15,8.33,8.24C48.98,99.27,53.22,95.22,53.25,90.79z M155.95,82.38c-4.62,0.04-8.55,4.03-8.44,8.57
	c0.11,4.53,4.24,8.36,8.87,8.2c4.48-0.15,8.11-3.89,8.12-8.37C164.51,86.1,160.68,82.34,155.95,82.38z M149.17,43.92
	c-2.23,1.98-3.68,3.27-5.14,4.56c1.87,0.84,3.73,2.3,5.6,2.33c1.63,0.02,3.29-1.58,4.94-2.47C153.05,47.1,151.52,45.85,149.17,43.92
	z M135.52,52.38c2.38-1.75,5.23-2.81,5.34-4.13c0.31-3.45-2.96-2.99-5.04-2.64c-1.88,0.32-3.59,1.64-5.37,2.51
	C131.93,49.37,133.4,50.61,135.52,52.38z"/>
</svg>
